<svg id="Group_4" data-name="Group 4" xmlns="http://www.w3.org/2000/svg" xmlns:xlink="http://www.w3.org/1999/xlink" width="189.267" height="17.892" viewBox="0 0 189.267 17.892">
  <defs>
    <clipPath id="clip-path">
      <rect id="Rectangle_8" data-name="Rectangle 8" width="189.267" height="17.892" fill="#ff7600"/>
    </clipPath>
  </defs>
  <g id="Group_3" data-name="Group 3" clip-path="url(#clip-path)">
    <path id="Path_11" data-name="Path 11" d="M28.931,0H20.32s0,0,0,0H15.926V2.415H17.6L16.027,9.73c-.634,2.91-.938,5.06-.938,5.06h-.051s-.482-2.412-.786-3.461l-1.5-5.348a1.041,1.041,0,0,0-1.04-.786h-.862a1.041,1.041,0,0,0-1.04.786l-1.5,5.348c-.3,1.049-.786,3.461-.786,3.461H7.481s-.3-2.15-.938-5.06L4.97,2.415H6.644V0H0V2.415H2.308L5.63,16.389a1.555,1.555,0,0,0,1.446,1.337h.71a1.687,1.687,0,0,0,1.521-1.337L10.6,11.618c.254-.918.659-2.805.659-2.805h.051s.406,1.888.659,2.805l1.293,4.772a1.687,1.687,0,0,0,1.522,1.337h.71a1.555,1.555,0,0,0,1.445-1.337L20.262,2.415,26.886,2.4l-5.2,13.705a1.074,1.074,0,0,0,.581,1.358l.48.183a.947.947,0,0,0,1.288-.574L29.689,2.088a3,3,0,0,0,.227-.835V.966A.916.916,0,0,0,28.931,0" fill="#ff7600"/>
    <path id="Path_12" data-name="Path 12" d="M215.993,12.714v2.532h2.071v2.4h-6.742v-2.4h2.071V12.714H208.14a1.245,1.245,0,0,1-1.162-1.2v-.287a1.94,1.94,0,0,1,.328-1.018l5.1-9.372A1.388,1.388,0,0,1,213.619,0h1.212a1.159,1.159,0,0,1,1.162,1.1v9.215h2.576v2.4Zm-2.6-9.137-3.661,6.735h3.661Z" transform="translate(-178.3)" fill="#ff7600"/>
    <path id="Path_13" data-name="Path 13" d="M505.789,14.426V1.618h1.595V14.5c0,2.168.9,3.289,2.317,3.289,1.4,0,2.317-1.121,2.317-3.289V1.618h1.62V14.426c0,3.09-1.57,4.859-3.937,4.859s-3.912-1.769-3.912-4.859" transform="translate(-435.709 -1.394)" fill="#ff7600"/>
    <path id="Path_14" data-name="Path 14" d="M639.566,1.619h1.62L646,14.7V1.619h1.57V19.062h-1.52L641.111,5.606V19.062h-1.545Z" transform="translate(-550.95 -1.394)" fill="#ff7600"/>
    <path id="Path_15" data-name="Path 15" d="M773.78,9.659v-.5c0-5.706,2.467-8.622,5.432-8.622a4.2,4.2,0,0,1,2.193.548V2.807a4.121,4.121,0,0,0-2.168-.7c-2.043,0-3.812,2.317-3.812,7.027v.548c0,4.934,1.719,7.127,3.788,7.127a2.457,2.457,0,0,0,.947-.174v-6.23h-2.318V8.937h3.813v8.722a5.046,5.046,0,0,1-2.542.623c-2.915,0-5.333-2.791-5.333-8.622" transform="translate(-666.568 -0.464)" fill="#ff7600"/>
    <path id="Path_16" data-name="Path 16" d="M913.21,17.02V15.25a5.906,5.906,0,0,0,2.965,1.071,2.074,2.074,0,0,0,2.218-2.243v-.05c0-1.271-.449-2.118-2.243-4.461-2.268-2.916-2.915-3.937-2.915-5.681v-.05A3.646,3.646,0,0,1,916.873,0a4.966,4.966,0,0,1,2.666.723V2.492a4.622,4.622,0,0,0-2.567-.922,2.055,2.055,0,0,0-2.118,2.168v.05c0,1.171.473,1.994,2.268,4.236,2.193,2.691,2.891,4.012,2.891,5.931V14a3.685,3.685,0,0,1-3.763,3.887,6.265,6.265,0,0,1-3.04-.872" transform="translate(-786.679)" fill="#ff7600"/>
    <path id="Path_17" data-name="Path 17" d="M1181.4,1.619h6.13v1.52h-4.51V9.518h4.087v1.52h-4.087v6.5h4.585v1.52h-6.2Z" transform="translate(-1017.714 -1.394)" fill="#ff7600"/>
    <path id="Path_18" data-name="Path 18" d="M1308.269,1.619h1.62L1314.7,14.7V1.619h1.57V19.062h-1.52l-4.934-13.456V19.062h-1.545Z" transform="translate(-1127.001 -1.394)" fill="#ff7600"/>
    <path id="Path_19" data-name="Path 19" d="M1047.11,3.139h-2.641V1.619h6.927v1.52h-2.666V19.062h-1.62Z" transform="translate(-899.751 -1.395)" fill="#ff7600"/>
    <rect id="Rectangle_6" data-name="Rectangle 6" width="9.485" height="1.534" transform="translate(143.396 0.224)" fill="#ff7600"/>
    <path id="Path_20" data-name="Path 20" d="M380.672,3.139H378.03V1.619h6.928v1.52h-2.666V19.062h-1.62Z" transform="translate(-325.652 -1.395)" fill="#ff7600"/>
    <rect id="Rectangle_7" data-name="Rectangle 7" width="9.485" height="1.534" transform="translate(51.057 0.224)" fill="#ff7600"/>
  </g>
</svg>
