<svg id="Group_13055" data-name="Group 13055" xmlns="http://www.w3.org/2000/svg" xmlns:xlink="http://www.w3.org/1999/xlink" width="840.905" height="370.177" viewBox="0 0 840.905 370.177">
  <defs>
    <clipPath id="clip-path">
      <rect id="Rectangle_11" data-name="Rectangle 11" width="840.905" height="370.177" fill="#fff"/>
    </clipPath>
  </defs>
  <g id="Group_7" data-name="Group 7" clip-path="url(#clip-path)">
    <path id="Path_22" data-name="Path 22" d="M604.152,0H424.341c-.052,0-.02.069-.069.072h-91.7V50.441h34.952L334.689,203.192c-13.237,60.77-19.594,105.667-19.594,105.667h-1.059s-10.06-50.368-16.414-72.271L266.376,124.9c-3.177-10.4-11.122-16.423-21.712-16.423H226.658c-10.593,0-18.535,6.021-21.712,16.423L173.7,236.588c-6.354,21.9-16.417,72.271-16.417,72.271h-1.059s-6.354-44.9-19.594-105.667L103.8,50.441h34.952V.072H0V50.441H48.19l69.375,291.814c4.236,18.069,16.947,27.921,30.187,27.921H162.58c19.062,0,29.125-17.52,31.772-27.921l27.007-99.643c5.3-19.163,13.77-58.583,13.77-58.583h1.062s8.472,39.42,13.767,58.583l27.007,99.643c2.647,10.4,12.711,27.921,31.775,27.921H323.57c13.237,0,25.948-9.852,30.184-27.921L423.129,50.441l138.311-.286-108.624,286.2c-4.219,10.905,1.583,24.533,12.126,28.35l10.02,3.816c11.073,4.36,22.149,0,26.891-11.993L619.973,43.612c1.053-2.726,4.745-11.993,4.745-17.444v-6C624.718,8.177,616.808,0,604.152,0" fill="#fff"/>
    <path id="Path_23" data-name="Path 23" d="M395.226,265.492v52.88h43.239v50.154H297.675V318.372h43.239v-52.88H231.233c-10.02,0-24.255-9.814-24.255-25.077v-6c0-8.724,3.162-14.719,6.854-21.261L320.347,17.446C323.513,11.448,330.894,0,345.659,0H370.97c14.238,0,24.255,12,24.255,22.9v192.44h53.785v50.154ZM340.914,74.686,264.453,215.338h76.461Z" transform="translate(391.893 -0.002)" fill="#fff"/>
  </g>
</svg>
